HIERARCHY
ROOT Hips
{
	OFFSET 0.000000 0.000000 0.000000
	CHANNELS 6 Xposition Yposition Zposition Xrotation Yrotation Zrotation
	JOINT LeftUpLeg_virtual
	{
		OFFSET 0.000000 0.000000 0.000000
		CHANNELS 3 Xrotation Yrotation Zrotation
		JOINT LeftUpLeg
		{
			OFFSET 11.394100 -6.187798 -0.413800
			CHANNELS 3 Xrotation Yrotation Zrotation
			JOINT LeftLeg
			{
				OFFSET 0.430247 -32.302673 3.732800
				CHANNELS 3 Xrotation Yrotation Zrotation
				JOINT LeftFoot
				{
					OFFSET -0.430247 -48.264931 -6.423300
					CHANNELS 3 Xrotation Yrotation Zrotation
					JOINT LeftToeBase
					{
						OFFSET 4.230900 -16.068199 23.438400
						CHANNELS 3 Xrotation Yrotation Zrotation
						JOINT LeftToe_End
						{
							OFFSET 4.510700 0.695400 19.974600
							CHANNELS 3 Xrotation Yrotation Zrotation
							End Site
							{
								OFFSET 0 0 0
							}
						}
					}
				}
			}
		}
	}
	JOINT RightUpLeg_virtual
	{
		OFFSET 0.000000 0.000000 0.000000
		CHANNELS 3 Xrotation Yrotation Zrotation
		JOINT RightUpLeg
		{
			OFFSET -11.333700 -6.187798 -0.413800
			CHANNELS 3 Xrotation Yrotation Zrotation
			JOINT RightLeg
			{
				OFFSET -0.430392 -32.302628 3.733000
				CHANNELS 3 Xrotation Yrotation Zrotation
				JOINT RightFoot
				{
					OFFSET 0.430392 -48.264973 -6.423500
					CHANNELS 3 Xrotation Yrotation Zrotation
					JOINT RightToeBase
					{
						OFFSET -4.230900 -16.068199 23.438400
						CHANNELS 3 Xrotation Yrotation Zrotation
						JOINT RightToe_End
						{
							OFFSET -4.510700 0.695400 19.974600
							CHANNELS 3 Xrotation Yrotation Zrotation
							End Site
							{
								OFFSET 0 0 0
							}
						}
					}
				}
			}
		}
	}
	JOINT Spine_virtual
	{
		OFFSET 0.000000 0.000000 0.000000
		CHANNELS 3 Xrotation Yrotation Zrotation
		JOINT Spine
		{
			OFFSET -0.002400 12.777504 0.315300
			CHANNELS 3 Xrotation Yrotation Zrotation
			JOINT Spine1
			{
				OFFSET -0.002067 5.816869 0.032633
				CHANNELS 3 Xrotation Yrotation Zrotation
				JOINT Spine1_split
				{
					OFFSET -0.002067 5.816869 0.032633
					CHANNELS 3 Xrotation Yrotation Zrotation
					JOINT Spine2
					{
						OFFSET -0.002067 5.816869 0.032633
						CHANNELS 3 Xrotation Yrotation Zrotation
						JOINT Neck_virtual
						{
							OFFSET 0.000000 0.000000 0.000000
							CHANNELS 3 Xrotation Yrotation Zrotation
							JOINT Neck
							{
								OFFSET -0.003700 21.199493 -0.826900
								CHANNELS 3 Xrotation Yrotation Zrotation
								JOINT Head
								{
									OFFSET 0.000000 20.442200 4.834800
									CHANNELS 3 Xrotation Yrotation Zrotation
									JOINT HeadTop_End
									{
										OFFSET 0.000000 34.668396 4.968400
										CHANNELS 3 Xrotation Yrotation Zrotation
										End Site
										{
											OFFSET 0 0 0
										}
									}
								}
							}
						}
						JOINT LeftShoulder_virtual
						{
							OFFSET 0.000000 0.000000 0.000000
							CHANNELS 3 Xrotation Yrotation Zrotation
							JOINT LeftShoulder
							{
								OFFSET 3.288150 8.794197 -1.372250
								CHANNELS 3 Xrotation Yrotation Zrotation
								JOINT LeftShoulder_split
								{
									OFFSET 3.288150 8.794197 -1.372250
									CHANNELS 3 Xrotation Yrotation Zrotation
									JOINT LeftArm
									{
										OFFSET 11.953299 -2.279007 -0.146200
										CHANNELS 3 Xrotation Yrotation Zrotation
										JOINT LeftForeArm
										{
											OFFSET 18.448900 0.000000 0.000000
											CHANNELS 3 Xrotation Yrotation Zrotation
											JOINT LeftHand
											{
												OFFSET 29.527798 0.000000 0.000000
												CHANNELS 3 Xrotation Yrotation Zrotation
												End Site
												{
													OFFSET 0 0 0
												}
											}
										}
									}
								}
							}
						}
						JOINT RightShoulder_virtual
						{
							OFFSET 0.000000 0.000000 0.000000
							CHANNELS 3 Xrotation Yrotation Zrotation
							JOINT RightShoulder
							{
								OFFSET -3.249400 8.794197 -1.372250
								CHANNELS 3 Xrotation Yrotation Zrotation
								JOINT RightShoulder_split
								{
									OFFSET -3.249400 8.794197 -1.372250
									CHANNELS 3 Xrotation Yrotation Zrotation
									JOINT RightArm
									{
										OFFSET -11.953299 -2.279007 -0.146200
										CHANNELS 3 Xrotation Yrotation Zrotation
										JOINT RightForeArm
										{
											OFFSET -18.448900 0.000000 0.000000
											CHANNELS 3 Xrotation Yrotation Zrotation
											JOINT RightHand
											{
												OFFSET -29.527802 0.000000 0.000000
												CHANNELS 3 Xrotation Yrotation Zrotation
												End Site
												{
													OFFSET 0 0 0
												}
											}
										}
									}
								}
							}
						}
					}
				}
			}
		}
	}
}
MOTION
Frames: 11
Frame Time: 0.03333333
8.487055 95.026962 103.599884 0.000000 0.000000 0.000000 16.899030 35.203625 -5.684686 -40.281881 15.183697 9.168296 36.034514 2.067784 -0.560448 -3.348507 31.143545 -0.598386 -4.897921 -3.756265 -4.610530 0.000000 0.000000 0.000000 17.832791 35.506691 -6.357642 -47.178534 -5.807832 -3.722359 33.480467 -4.923415 -4.047241 1.523162 -11.268321 7.255472 5.425650 6.859654 -2.776323 0.000000 0.000000 0.000000 16.484002 36.162382 -6.163497 11.166542 -6.491803 2.083988 6.279795 -2.178706 1.019369 0.052769 0.383785 -0.032325 0.000000 0.000000 0.000000 8.179929 -0.146851 0.369901 -14.432024 1.300995 1.175646 -24.197432 3.367063 6.734596 0.000000 0.000000 0.000000 6.357102 -1.457818 -0.614921 4.758177 -4.783260 -7.845691 2.144786 -7.654029 3.906822 -35.135641 -13.730692 -34.232536 1.955157 -17.168924 1.317415 0.000000 0.000000 0.000000 9.488579 -0.326086 0.708856 -1.546259 2.866229 2.594442 6.227228 7.248788 -0.852894 -18.710940 -17.105420 49.658006 -6.017783 54.095570 2.094672 0.000000 0.000000 0.000000 
8.655681 97.714668 105.821503 0.000000 0.000000 0.000000 17.760893 36.518464 -5.924746 -43.057960 15.711674 6.639559 31.230630 1.344698 1.243325 1.351562 29.683087 -4.149970 -1.580122 -3.360272 -2.467208 0.000000 0.000000 0.000000 18.147903 37.061354 -6.432296 -42.608981 -7.257501 -3.925088 29.581945 -3.713327 -4.184732 1.233377 -11.702481 7.855686 1.881839 6.975592 -0.220268 0.000000 0.000000 0.000000 16.787002 37.009681 -6.261604 10.269939 -5.768386 1.844493 6.314058 -1.779064 0.835359 -0.017704 0.422072 -0.025066 0.000000 0.000000 0.000000 7.789778 0.289896 0.269046 -13.182127 1.648092 0.307085 -20.502213 -3.393205 5.066459 0.000000 0.000000 0.000000 6.322790 -0.985384 -0.874709 5.001041 -3.115278 -7.670074 2.362438 -7.973150 4.217946 -32.936043 -13.601326 -35.391810 1.916009 -16.268778 1.365091 0.000000 0.000000 0.000000 9.437990 0.124460 0.470670 -1.766362 3.938944 3.621902 6.746841 7.540892 -0.599979 -20.414993 -18.627567 49.011132 -9.483246 57.517774 5.572164 0.000000 0.000000 0.000000 
9.015738 99.155106 108.347275 0.000000 0.000000 0.000000 18.114772 37.525408 -5.959852 -46.073133 16.281547 4.922817 28.585904 0.883291 2.925594 6.203249 28.214511 -7.219706 -0.620100 -2.931542 -0.709608 0.000000 0.000000 0.000000 18.503194 38.370323 -6.437299 -38.295054 -8.552912 -3.876196 27.985042 -2.593457 -4.260947 -1.976194 -12.402885 7.916597 0.395795 7.189119 1.080039 0.000000 0.000000 0.000000 16.825428 37.904944 -6.219874 9.352994 -5.044238 1.518576 6.228819 -1.379701 0.527996 -0.060421 0.443367 -0.041291 0.000000 0.000000 0.000000 7.225317 0.692315 0.078857 -11.947756 1.941674 -0.770054 -16.300952 -10.298617 3.978008 0.000000 0.000000 0.000000 6.266582 -0.540450 -1.193073 5.237712 -1.298646 -7.167070 2.349789 -7.898059 4.054869 -31.014318 -12.803762 -35.941251 1.739106 -17.207234 1.419297 0.000000 0.000000 0.000000 9.297156 0.526823 0.117651 -1.987891 5.010161 4.513045 7.105903 7.879139 -0.428291 -21.347427 -19.143460 48.929467 -13.844068 61.194759 9.945317 0.000000 0.000000 0.000000 
9.536484 99.104446 111.256760 0.000000 0.000000 0.000000 17.873683 38.088683 -5.774360 -49.366954 17.216902 4.120309 28.199141 0.774818 4.444238 9.250376 26.948436 -8.615631 -0.304283 -2.549267 0.745398 0.000000 0.000000 0.000000 18.480028 39.149893 -6.267321 -34.560146 -9.979905 -3.671631 28.867388 -1.912910 -4.213125 -7.951348 -13.559821 6.877471 1.723051 7.708417 0.816623 0.000000 0.000000 0.000000 16.589795 38.913719 -6.109378 8.490536 -4.310260 1.043449 6.033593 -0.959484 0.128914 -0.065768 0.455730 -0.046601 0.000000 0.000000 0.000000 6.625173 1.093790 -0.183086 -10.933737 1.990807 -1.827377 -12.064606 -17.305789 3.687533 0.000000 0.000000 0.000000 6.157541 -0.098918 -1.519813 5.455910 0.530786 -6.307779 2.134738 -7.441880 3.589204 -29.464917 -11.431431 -35.755692 1.396978 -19.968364 1.448580 0.000000 0.000000 0.000000 9.064472 0.910330 -0.310354 -2.181179 5.980495 5.160073 7.458486 8.070085 -0.379051 -21.630731 -18.641808 49.598604 -18.831892 64.486903 14.946689 0.000000 0.000000 0.000000 
10.168608 97.772820 114.424713 0.000000 0.000000 0.000000 17.113362 38.180443 -5.374914 -52.792923 18.370764 4.186728 29.217299 0.481502 5.611283 10.043089 25.560648 -8.561301 -0.812236 -2.266018 2.665600 0.000000 0.000000 0.000000 18.023682 39.495982 -5.942475 -31.628352 -11.459442 -3.485072 31.448202 -1.040873 -4.115905 -14.643459 -14.622831 6.507522 3.113191 8.344901 -1.000636 0.000000 0.000000 0.000000 16.126321 39.973764 -5.960947 7.742092 -3.553997 0.367084 5.750017 -0.532669 -0.302192 -0.022925 0.441155 -0.058411 0.000000 0.000000 0.000000 6.122149 1.525447 -0.467275 -10.311076 1.740457 -2.627146 -8.436712 -23.996814 4.036021 0.000000 0.000000 0.000000 5.952353 0.374866 -1.803027 5.609882 2.160599 -5.169349 1.912733 -6.696084 2.905637 -28.454276 -9.949513 -34.965402 0.904309 -24.238641 1.435818 0.000000 0.000000 0.000000 8.740849 1.287367 -0.757639 -2.331721 6.764295 5.472839 7.688535 7.781061 -0.210612 -21.521977 -17.443641 50.938243 -23.810010 66.978037 19.923742 0.000000 0.000000 0.000000 
10.942509 95.788025 117.815994 0.000000 0.000000 0.000000 16.016029 37.960098 -4.897364 -55.972205 19.511861 5.059726 30.929330 -0.339984 6.316832 9.511985 23.812661 -7.668111 -2.096873 -2.202320 5.374988 0.000000 0.000000 0.000000 17.288267 39.703610 -5.585497 -29.243875 -12.950349 -3.344676 34.794954 0.325510 -4.109756 -20.059695 -15.493908 7.842496 2.573466 8.997306 -3.966422 0.000000 0.000000 0.000000 15.532243 41.160564 -5.880805 7.074806 -2.789211 -0.497705 5.404743 -0.119438 -0.689795 0.032743 0.301673 -0.085763 0.000000 0.000000 0.000000 5.768655 1.979064 -0.729149 -10.082926 1.206062 -3.077818 -6.017874 -30.098192 4.505321 0.000000 0.000000 0.000000 5.618284 0.887741 -1.993042 5.693830 3.362431 -3.944438 1.801979 -5.842900 2.220732 -27.916443 -8.753677 -33.688942 0.334732 -29.614327 1.410538 0.000000 0.000000 0.000000 8.319710 1.661045 -1.160958 -2.407898 7.207235 5.433897 7.881532 7.077046 -0.003991 -21.426321 -15.983568 52.734163 -28.101126 68.751079 24.185222 0.000000 0.000000 0.000000 
11.905712 93.787300 121.415421 0.000000 0.000000 0.000000 14.930684 37.898660 -4.704157 -59.119529 20.167868 6.471423 33.276306 -1.718455 6.439504 9.568412 21.693850 -7.054474 -3.007243 -2.231035 7.832969 0.000000 0.000000 0.000000 16.395557 39.782160 -5.450339 -26.938083 -14.494088 -3.092398 37.500723 1.983791 -4.233553 -23.602882 -16.145729 10.032372 1.001199 9.662438 -7.233286 0.000000 0.000000 0.000000 14.829162 42.446689 -5.976587 6.404058 -2.078304 -1.470777 4.983469 0.226381 -0.963507 0.072248 0.162928 -0.087169 0.000000 0.000000 0.000000 5.532461 2.429719 -0.927175 -10.135650 0.473822 -3.218428 -5.191198 -35.278600 4.449929 0.000000 0.000000 0.000000 5.146490 1.399302 -2.060533 5.683987 4.018292 -2.937102 1.991189 -5.196557 1.944682 -27.746967 -8.151170 -32.178596 -0.129948 -35.512107 1.440846 0.000000 0.000000 0.000000 7.826751 2.016259 -1.463124 -2.406409 7.208151 5.071331 8.102559 6.230310 0.192319 -21.433977 -14.594762 54.707613 -31.154255 69.987043 27.173496 0.000000 0.000000 0.000000 
13.092313 92.309639 125.037415 0.000000 0.000000 0.000000 14.036448 38.240074 -4.920674 -61.643687 20.233438 8.157548 35.869015 -2.985836 5.954250 10.349549 19.770000 -6.208514 -3.659699 -2.303863 9.689794 0.000000 0.000000 0.000000 15.663359 40.067963 -5.740743 -24.150869 -15.837636 -2.508163 38.646631 3.555797 -4.395833 -26.112402 -16.501742 11.442712 -0.151340 10.143656 -9.900007 0.000000 0.000000 0.000000 14.099454 43.709516 -6.331785 5.619337 -1.499115 -2.378117 4.502295 0.455143 -1.083404 0.120057 0.080987 -0.068823 0.000000 0.000000 0.000000 5.345838 2.804549 -1.032981 -10.302167 -0.250041 -3.112533 -6.085371 -39.148694 3.347712 0.000000 0.000000 0.000000 4.569689 1.842127 -2.013699 5.569797 4.029425 -2.308892 2.397895 -4.914727 1.988741 -27.624272 -8.364074 -30.618290 -0.357814 -41.485483 1.572421 0.000000 0.000000 0.000000 7.262882 2.294115 -1.632668 -2.350625 6.735459 4.540639 8.099996 5.592187 0.241444 -21.435357 -13.467058 56.719445 -32.833655 70.884735 28.775228 0.000000 0.000000 0.000000 
14.460742 91.685059 128.701187 0.000000 0.000000 0.000000 13.215984 38.844187 -5.475263 -62.732187 19.743724 9.578490 38.435103 -3.350884 5.121380 11.078417 18.799898 -4.493348 -3.655598 -2.282227 10.393723 0.000000 0.000000 0.000000 15.285630 40.704225 -6.537998 -20.888747 -16.895748 -1.647135 38.728880 4.549349 -4.491457 -27.804841 -16.532140 10.702001 -0.098179 10.217122 -11.415945 0.000000 0.000000 0.000000 13.389841 44.886036 -6.982359 4.638826 -1.164110 -3.055264 3.985568 0.533755 -1.066569 0.137321 0.015903 -0.019288 0.000000 0.000000 0.000000 5.102985 3.029272 -1.040493 -10.391621 -0.809365 -2.986528 -8.274600 -41.425473 1.137054 0.000000 0.000000 0.000000 3.932719 2.130166 -1.874996 5.354208 3.367946 -2.130542 2.717129 -4.804510 2.189236 -27.307895 -9.238344 -29.131553 -0.241666 -47.266678 1.826187 0.000000 0.000000 0.000000 6.651902 2.445631 -1.668533 -2.235030 5.801014 3.945868 8.038225 5.415620 0.172941 -21.080242 -12.529527 58.652849 -33.310057 71.600081 29.184172 0.000000 0.000000 0.000000 
16.010675 91.841164 132.379044 0.000000 0.000000 0.000000 12.464096 39.435870 -6.203767 -61.638817 18.951451 10.265634 40.382162 -2.810671 4.161224 10.600810 18.889535 -1.940661 -3.573524 -2.203588 10.201693 0.000000 0.000000 0.000000 14.985095 41.225533 -7.467484 -18.026317 -17.778315 -0.936810 38.744883 4.973634 -4.401593 -27.539999 -16.339091 8.491067 -0.095682 9.873311 -11.846017 0.000000 0.000000 0.000000 12.530633 45.776901 -7.650740 3.615501 -1.172152 -3.407144 3.477692 0.423420 -0.965371 0.147604 -0.011802 0.043418 0.000000 0.000000 0.000000 4.782581 3.044302 -0.968040 -10.364960 -1.073593 -2.992215 -10.855404 -41.848060 -1.628114 0.000000 0.000000 0.000000 3.298138 2.191026 -1.695527 5.022281 2.162656 -2.284828 3.053084 -4.453742 2.412816 -26.735070 -10.654403 -27.830630 0.216315 -52.601793 2.156451 0.000000 0.000000 0.000000 6.026599 2.404085 -1.596461 -2.087212 4.535014 3.321814 7.805836 5.578164 0.207406 -19.924948 -11.580960 60.341265 -32.864463 72.152083 28.697211 0.000000 0.000000 0.000000 
17.685156 92.598633 135.966675 0.000000 0.000000 0.000000 11.780997 39.980345 -6.851496 -58.122082 18.221246 10.143176 40.839897 -1.891367 3.311928 8.481561 19.436644 0.661980 -4.352632 -2.252024 10.033098 0.000000 0.000000 0.000000 14.333009 41.549526 -8.102862 -16.832766 -18.651122 -0.937090 39.249187 5.440050 -4.315004 -24.410208 -15.959464 7.254130 -2.232829 9.334786 -11.757240 0.000000 0.000000 0.000000 11.588522 46.482200 -8.133509 2.758933 -1.580782 -3.407682 3.040117 0.122607 -0.854387 0.163290 -0.096837 0.061570 0.000000 0.000000 0.000000 4.405008 2.824249 -0.855713 -10.276505 -0.956429 -3.235955 -12.879498 -40.500126 -4.130393 0.000000 0.000000 0.000000 2.730232 1.986138 -1.519017 4.603615 0.531057 -2.426481 3.513201 -3.711511 2.534606 -26.034086 -12.300887 -26.691379 0.870139 -57.301742 2.429616 0.000000 0.000000 0.000000 5.420353 2.136541 -1.456218 -1.924077 3.143059 2.671552 7.390657 5.989106 0.536915 -17.689954 -10.491374 61.512957 -31.848093 72.495320 27.629179 0.000000 0.000000 0.000000 
